<svg id="Layer_1" data-name="Layer 1" xmlns="http://www.w3.org/2000/svg" viewBox="0 0 500 330.2"><defs><style>.cls-1{fill:#88d1c3;}.cls-2{fill:#7996c9;}.cls-3{fill:#ff8080;}.cls-4{fill:#fff;}.cls-5{fill:#4f457c;}</style></defs><path class="cls-1" d="M130.56,160.82l-65.7-46.73C93,91,145.09,60.3,189.85,57.93"/><ellipse class="cls-2" cx="298.65" cy="156.67" rx="158.46" ry="78.72" transform="translate(-38.32 170.31) rotate(-30)"/><path class="cls-3" d="M49.17,225.78C31,236.27,11.5,265.89,6.49,286.34c20.22,5.89,55.61,3.82,73.79-6.68a31.11,31.11,0,1,0-31.11-53.88Z"/><ellipse class="cls-4" cx="274.3" cy="114.5" rx="158.46" ry="78.72" transform="translate(-20.5 152.49) rotate(-30)"/><ellipse class="cls-1" cx="258.5" cy="121.11" rx="141.47" ry="58.86" transform="translate(-25.92 145.48) rotate(-30)"/><path class="cls-4" d="M392.38,116.64l21.77,37.72s10-7.8,13.43-14.87,18.71-34.82,7.43-55-16-26.4-19.27-14.93S392.38,116.64,392.38,116.64Z"/><path class="cls-1" d="M223.63,216.54c-23.7,4.06-34.2,3.13-49.27-.48S161,218.18,152.7,228.57s-32.14,90.06-32.14,90.06,31.93,3.11,67.95-17.7,122-80.52,121.08-100.15-8-4.33-31,2.17S223.63,216.54,223.63,216.54Z"/><path class="cls-4" d="M73.17,116.19C110.69,96.1,152.93,77.35,177,82.73c0,0,12.63-22.5,8.49-24.48S94.36,92,77.61,104.31,73.17,116.19,73.17,116.19Z"/><path class="cls-1" d="M168.92,154.44c-23.6,6.43-43.69,14-58.18,21.57S90.46,186.4,91.29,193.25s17.82,47.23,26.11,51.86,21.12-2.12,25.6-13,4.5-16.67,18.62-33.1S200.83,152.62,168.92,154.44Z"/><path class="cls-4" d="M95.78,201.22a285.92,285.92,0,0,1,78.47-32.12l-9,17.07L101.7,222.88Z"/><path class="cls-4" d="M128.53,309.23c25.3-9.59,98.34-37.75,145-98.78,0,0,32.3-21.93,37.15-21.45s-29.23,55.58-77.09,82.85S120.9,329.12,128.53,309.23Z"/><path class="cls-1" d="M345.47,62.18c25.22,43.69-133,135-158.22,91.35A91.35,91.35,0,1,1,345.47,62.18Z"/><path class="cls-2" d="M490.45,19.76a22.75,22.75,0,0,0-42.11,15.38l-31.1,18L425,66.49l31.11-17.95a22.75,22.75,0,0,0,34.37-28.78Z"/><path class="cls-5" d="M439.61,76.38l-24.83-43h0c-17-28.88-62.64-36.51-119.38-20.11a98.29,98.29,0,0,0-109.7,37.25C141.74,54.27,92.44,82.24,63,105.67a10.41,10.41,0,0,0-4,8.51,10.81,10.81,0,0,0,4.51,8.44l52.88,37.61a252.75,252.75,0,0,0-24.71,12.63C75.87,182,85.83,215.71,98,236.73c9.16,15.85,19.57,27.23,29.41,32.66l-12.54,41.39a11.44,11.44,0,0,0,13.11,14.44c27.14-5.15,84.41-23.58,132.23-59.59l0,.16c25.81-6.07,53.07-17.14,78.85-32C419.57,187.28,463.73,118.15,439.61,76.38Zm-38-34.89c8.91,15.43,4.59,37.78-12.14,62.94-17.83,26.76-47.2,52.8-82.76,73.32-52.6,30.38-109.22,42.38-142.55,31.09l28.16-40.44c5.76,2.94,12.73,4.32,20.55,4.32,22,0,50.49-10.51,76.28-25.4,42.71-24.66,78.75-61.74,63-89a98.41,98.41,0,0,0-33.78-34.74C358.71,15.61,390.37,22,401.61,41.49ZM224.55,35.44A83.63,83.63,0,0,1,338.78,66.05c5.27,9.14-3.29,22-9.26,29.37,2.26-6.27,2.34-12.19-.62-17.32a78,78,0,0,0-145.61,38.79A83.72,83.72,0,0,1,224.55,35.44ZM77.77,113.77c27-20.26,64.85-40.38,98.32-46.42A100.06,100.06,0,0,0,170,85.69c-21.46,20.67-36.47,42.32-43.69,62.58ZM175,146c-1.13.12-2.27.3-3.41.42-9,1-18.58,2-30,5,5-12.91,13.86-26.8,25.77-40.52A98.36,98.36,0,0,0,175,146Zm-61.47,86.49c-.73-1.17-1.47-2.2-2.19-3.45-12.53-21.73-13.77-40-11.93-42.73,35.35-20.41,54.91-22.49,73.83-24.52,1.78-.18,3.56-.46,5.33-.66l-28.08,40.34a49.29,49.29,0,0,0-6.75,13.94l-4,13.06-10.62,6.13C124.45,237.27,118.62,237.92,113.53,232.44Zm18.08,76.21,25.66-85.85c10.34,3.79,22.39,5.69,35.71,5.69,32,0,70.92-10.73,109.17-30.68C262.32,265.71,172.78,299.25,131.61,308.65Zm156.75-67.78a197.94,197.94,0,0,0,17.9-21.05l6.13,10.63C304.41,234.35,296.37,237.81,288.36,240.87Zm43-20.49q-4.62,2.66-9.29,5.15l-9-15.64a165.24,165.24,0,0,0,10.77-20.1l15,26C336.32,217.34,333.88,218.9,331.33,220.38ZM347.92,210l-16.87-29.22q8.22-5.43,15.92-11.19l16.79,29.09Q356.17,204.48,347.92,210Zm24.39-18.15-16.75-29c5.2-4.22,10.22-8.51,14.93-12.91l16.59,28.74C382.47,183.13,377.51,187.51,372.31,191.83Zm22.62-21.18-16.47-28.54c4.89-5,9.37-10.12,13.55-15.28l16.23,28.1A197.83,197.83,0,0,1,394.93,170.65Zm20.17-25.46-16-27.69c1.07-1.5,2.22-3,3.22-4.5a146.67,146.67,0,0,0,8.31-14.29l15.12,26.18A115.77,115.77,0,0,1,415.1,145.19Zm14.77-34.81L416.06,86.47a90,90,0,0,0,3.85-13.29l6.32,10.93C430.53,91.56,431.5,100.54,429.87,110.38Z"/></svg>