<svg id="Layer_1" data-name="Layer 1" xmlns="http://www.w3.org/2000/svg" xmlns:xlink="http://www.w3.org/1999/xlink" viewBox="0 0 1326.47 884.13"><defs><style>.cls-1{fill:url(#radial-gradient);}.cls-2{fill:#7996c9;}.cls-3{fill:#4f457c;}.cls-4{fill:#88d1c3;}.cls-5{fill:#fff;}.cls-6{opacity:0.15;}.cls-7{fill:#ffaeae;}.cls-8{fill:#ff8080;}</style><radialGradient id="radial-gradient" cx="550.32" cy="884.75" r="586.89" gradientTransform="translate(61.44 58.56) scale(1.09 0.93)" gradientUnits="userSpaceOnUse"><stop offset="0" stop-color="#fff" stop-opacity="0.8"/><stop offset="0.11" stop-color="#fbfefd" stop-opacity="0.78"/><stop offset="0.25" stop-color="#f1faf8" stop-opacity="0.71"/><stop offset="0.42" stop-color="#e1f3f0" stop-opacity="0.6"/><stop offset="0.6" stop-color="#caeae4" stop-opacity="0.44"/><stop offset="0.79" stop-color="#acdfd5" stop-opacity="0.24"/><stop offset="1" stop-color="#88d1c3" stop-opacity="0"/><stop offset="1" stop-color="#88d1c3" stop-opacity="0"/></radialGradient></defs><path class="cls-1" d="M663,328.82c-364.86,0-660.63,248.62-660.63,555.3H1323.64C1323.64,577.44,1027.87,328.82,663,328.82Z"/><path class="cls-2" d="M201.74,884.39V839a6.67,6.67,0,0,1,6.67-6.67h87.28a6.67,6.67,0,0,0,6.67-6.67V813a6.65,6.65,0,0,1,4.53-6.31l104.2-35.26a6.67,6.67,0,0,1,8.81,6.31v25.84a6.67,6.67,0,0,0,6.66,6.67h59.52a6.67,6.67,0,0,0,6.67-6.67V773.39a6.67,6.67,0,0,1,6.67-6.67H595a6.67,6.67,0,0,0,6.67-6.67V749.3a6.67,6.67,0,0,1,6.67-6.67H755.92a6.67,6.67,0,0,1,6.67,6.67v34.36a6.67,6.67,0,0,0,6.67,6.67h67.47A6.67,6.67,0,0,1,843.4,797v13.71a6.67,6.67,0,0,0,6.66,6.67h58.67a6.67,6.67,0,0,0,6.67-6.67V796.29a5.92,5.92,0,0,1,6.65-5.87l97.22,12.11a5.92,5.92,0,0,1,5.19,5.87v10.69a5.91,5.91,0,0,0,5.91,5.91h88.56a6.67,6.67,0,0,1,6.66,6.67v52.72Z"/><polygon class="cls-2" points="384.75 620.91 368.26 620.91 362.01 813 391 813 384.75 620.91"/><circle class="cls-2" cx="376.51" cy="643.47" r="33.6"/><rect class="cls-2" x="314.71" y="637.83" width="123.6" height="11.28" rx="5.64"/><rect class="cls-2" x="348.14" y="614.08" width="56.73" height="5.18" rx="2.59" transform="translate(-240.17 993.18) rotate(-90)"/><circle class="cls-2" cx="376.51" cy="590.77" r="9.25"/><path class="cls-2" d="M1008.3,676H927.9a7,7,0,0,0-6.87,5,6.9,6.9,0,0,0,6.63,8.74h9.13a32.17,32.17,0,0,0,16.37,21.12,10,10,0,0,1,5.42,9.31c-1.09,25.36-4.76,111.07-4.76,111.07h28.32l-4.76-111.06a10,10,0,0,1,5.42-9.32,32.17,32.17,0,0,0,16.37-21.12h8.89a7,7,0,0,0,6.87-5A6.9,6.9,0,0,0,1008.3,676Z"/><rect class="cls-2" x="944.44" y="676.7" width="47.08" height="4.3" rx="2.15" transform="translate(289.13 1646.82) rotate(-90)"/><circle class="cls-2" cx="967.98" cy="657.35" r="7.68"/><rect class="cls-2" x="294.96" y="791.19" width="63.26" height="5.77" rx="2.89" transform="translate(-467.48 1120.67) rotate(-90)"/><rect class="cls-2" x="754.32" y="781.55" width="63.26" height="5.77" rx="2.89" transform="translate(1.51 1570.39) rotate(-90)"/><rect class="cls-2" x="570.47" y="726.88" width="86.83" height="7.92" rx="3.96" transform="translate(-116.96 1344.72) rotate(-90)"/><rect class="cls-2" x="888.3" y="795.57" width="86.83" height="7.92" rx="3.96" transform="translate(132.19 1731.25) rotate(-90)"/><rect class="cls-2" x="963.16" y="802.84" width="73.05" height="15.88" rx="7.94" transform="translate(188.9 1810.46) rotate(-90)"/><path class="cls-2" d="M853.71,679.13H771.3a8.73,8.73,0,0,0-8.68,6.77,8.5,8.5,0,0,0,8.31,10.18h20.3a14.25,14.25,0,0,1,14.24,14.72l-3.85,107.5H823l-3.85-107.5a14.25,14.25,0,0,1,14.24-14.72h19.93a8.74,8.74,0,0,0,8.68-6.77A8.5,8.5,0,0,0,853.71,679.13Z"/><path class="cls-2" d="M485.56,729.86a5.92,5.92,0,0,0,5.68-7.5,6,6,0,0,0-5.89-4.29h-23v-2.81a6.64,6.64,0,0,0-4.74-6.49,6.52,6.52,0,0,0-8.27,6.26v3H426.44a6,6,0,0,0-5.89,4.29,5.92,5.92,0,0,0,5.68,7.5h11.39a11.77,11.77,0,0,1,11.77,11.77v5H432a6,6,0,0,0-5.89,4.29,5.92,5.92,0,0,0,5.68,7.5h5.8a11.77,11.77,0,0,1,11.77,11.77v46.3a6.66,6.66,0,0,0,4.74,6.5,6.53,6.53,0,0,0,8.27-6.27V770.18a11.77,11.77,0,0,1,11.77-11.77h5.59a6,6,0,0,0,5.89-4.3,5.91,5.91,0,0,0-5.68-7.49H462.4v-5a11.77,11.77,0,0,1,11.77-11.77Z"/><path class="cls-2" d="M778.59,681.48a33.73,33.73,0,1,1,67.46,0"/><path class="cls-2" d="M519.5,773.89s30.59-45.22,30.59-125.39h16.83V784.44Z"/><rect class="cls-2" x="530.68" y="640.02" width="56.04" height="14.91" rx="7.46"/><path class="cls-2" d="M579.26,671.67H559v14.91h20.22a7.46,7.46,0,1,0,0-14.91Z"/><path class="cls-2" d="M579.26,703.32H559v14.91h20.22a7.46,7.46,0,1,0,0-14.91Z"/><path class="cls-2" d="M579.26,735H559v14.92h20.22a7.46,7.46,0,1,0,0-14.92Z"/><path class="cls-2" d="M747.28,700.61H708.21a5.17,5.17,0,0,0-5.18,4.1,5,5,0,0,0,4.88,5.8h1.77a13,13,0,0,1,13,13v21.15a5.16,5.16,0,0,0,4.11,5.18,5,5,0,0,0,5.8-4.88V723.47a13,13,0,0,1,13-13H747a5.16,5.16,0,0,0,5.18-4.11A5,5,0,0,0,747.28,700.61Z"/><path class="cls-2" d="M877.23,773.76V717.94a8.2,8.2,0,0,1,2.41-5.8l9.46-9.47a2.26,2.26,0,0,1,3.86,1.6v30l8.63,8.63a8.25,8.25,0,0,1,2.4,5.81v75.42H855.57v-25a9,9,0,0,1,2.64-6.38Z"/><circle class="cls-2" cx="1062.32" cy="825" r="25.47"/><circle class="cls-2" cx="455.89" cy="812.6" r="22.78"/><path class="cls-2" d="M249.75,826.24v-5.62h19.44a1.79,1.79,0,0,0,1.78-1.94c-.05-.54-.1-1.08-.16-1.61a2.9,2.9,0,0,0-2.9-2.56H249.75v-5.62h17a1.78,1.78,0,0,0,1.68-2.36c-.23-.67-.49-1.33-.75-2a2.92,2.92,0,0,0-2.69-1.79H249.75v-5.62h9.79a1.79,1.79,0,0,0,1.25-3.06,16,16,0,0,0-11-4.86c-11.82,0-21.41,15.21-21.41,34s9.59,34,21.41,34c10.76,0,19.66-12.59,21.18-29a1.79,1.79,0,0,0-1.78-2Z"/><path class="cls-2" d="M133.86,884.12h85.41V854.25H157.33a14.61,14.61,0,0,0-13.19,8.33Z"/><path class="cls-2" d="M1187.44,884.13H1102V854.25H1164a14.62,14.62,0,0,1,13.2,8.33Z"/><path class="cls-3" d="M655,531.83c-99.83,0-181-81.21-181-181s81.21-181,181-181,181,81.21,181,181S754.82,531.83,655,531.83ZM655,185c-91.41,0-165.77,74.36-165.77,165.77S563.58,516.57,655,516.57,820.77,442.2,820.77,350.79,746.4,185,655,185Z"/><circle class="cls-4" cx="654.99" cy="337.09" r="172.88"/><circle class="cls-2" cx="642.96" cy="349.12" r="160.85"/><path class="cls-3" d="M913.73,500c-15.75,0-40.79-4.21-81-17.37-57.91-19-131.14-51.13-206.2-90.6-99-52.09-280.42-161.92-257.89-204.76,11.28-21.44,65.8-12.92,162.07,25.35l-5.64,14.18c-108-42.93-140.16-37.65-142.92-32.42-2,3.87,5.16,23.45,62.15,67,47.77,36.47,115,78.09,189.34,117.17s146.71,70.91,203.84,89.6c68.14,22.3,88.35,17.13,90.39,13.26,4.21-8-27.22-50.65-148-125.26l8-13c64.81,40,170.92,112.17,153.47,145.35C939.46,492.07,935.3,500,913.73,500Z"/><path class="cls-3" d="M655,518.65c-99.83,0-181-81.21-181-181s81.21-181,181-181,181,81.22,181,181S754.82,518.65,655,518.65Zm0-346.81c-91.41,0-165.77,74.36-165.77,165.77S563.58,503.39,655,503.39,820.77,429,820.77,337.61,746.4,171.84,655,171.84Z"/><path class="cls-4" d="M588.45,206.55,551.06,180c16-13.16,45.66-30.61,71.14-32"/><ellipse class="cls-2" cx="684.12" cy="204.19" rx="90.19" ry="44.81" transform="translate(-10.44 369.42) rotate(-30)"/><path class="cls-5" d="M542.13,243.52c-10.35,6-21.44,22.83-24.29,34.48,11.5,3.35,31.65,2.17,42-3.81a17.71,17.71,0,1,0-17.71-30.67Z"/><ellipse class="cls-5" cx="670.27" cy="180.19" rx="90.19" ry="44.81" transform="translate(-0.3 359.27) rotate(-30)"/><ellipse class="cls-4" cx="661.27" cy="183.95" rx="80.52" ry="33.5" transform="translate(-3.38 355.28) rotate(-30)"/><path class="cls-5" d="M737.47,181.41l12.4,21.46s5.66-4.44,7.64-8.46,10.65-19.82,4.23-31.3-9.1-15-11-8.49S737.47,181.41,737.47,181.41Z"/><path class="cls-4" d="M641.43,238.27c-13.49,2.3-19.47,1.78-28-.28s-7.59,1.21-12.33,7.12-18.29,51.26-18.29,51.26,18.17,1.77,38.68-10.07,69.44-45.83,68.91-57-4.57-2.47-17.67,1.23S641.43,238.27,641.43,238.27Z"/><path class="cls-5" d="M555.79,181.15c21.35-11.44,45.4-22.11,59.07-19.05,0,0,7.19-12.8,4.83-13.93s-51.84,19.21-61.37,26.22S555.79,181.15,555.79,181.15Z"/><path class="cls-4" d="M610.29,202.92c-13.44,3.66-24.87,8-33.12,12.28s-11.54,5.91-11.07,9.81,10.15,26.88,14.86,29.52,12-1.21,14.57-7.42,2.57-9.49,10.6-18.84S628.45,201.88,610.29,202.92Z"/><path class="cls-5" d="M568.66,229.54a163.13,163.13,0,0,1,44.66-18.28l-5.1,9.72L572,241.88Z"/><path class="cls-5" d="M587.3,291c14.4-5.45,56-21.48,82.52-56.22,0,0,18.39-12.48,21.15-12.21s-16.64,31.64-43.88,47.16S583,302.34,587.3,291Z"/><path class="cls-4" d="M710.77,150.41c14.36,24.87-75.69,76.86-90,52a52,52,0,0,1,90-52Z"/><path class="cls-3" d="M793.29,126.26a12.94,12.94,0,0,0-24,8.76l-13.9,8-5.21-9h0c-9.69-16.44-35.65-20.78-68-11.45a56,56,0,0,0-62.44,21.2c-25,2.13-53.07,18.05-69.85,31.38a6,6,0,0,0-2.25,4.84,6.17,6.17,0,0,0,2.57,4.81l30.1,21.4a144.75,144.75,0,0,0-14.07,7.2c-9,5.2-3.32,24.38,3.58,36.35,5.21,9,11.14,15.49,16.74,18.59L579.5,291.9a6.49,6.49,0,0,0,7.46,8.22c15.45-2.93,48-13.42,75.26-33.91l0,.09a169.33,169.33,0,0,0,44.89-18.22c45.82-26.47,71-65.82,57.23-89.59l-4.52-7.83,13.89-8a12.94,12.94,0,0,0,19.56-16.38Zm-50.56,12.37c5.07,8.79,2.61,21.51-6.92,35.83-10.14,15.23-26.86,30-47.1,41.73-29.94,17.29-62.16,24.12-81.13,17.7l16-23a25.6,25.6,0,0,0,11.7,2.47c12.52,0,28.74-6,43.42-14.46,24.31-14,44.82-35.14,35.86-50.66a55.94,55.94,0,0,0-19.22-19.78C718.31,123.9,736.33,127.56,742.73,138.63ZM642,135.19a47.6,47.6,0,0,1,65,17.42c3,5.2-1.86,12.55-5.27,16.72,1.29-3.57,1.34-6.94-.35-9.86a44.4,44.4,0,0,0-82.87,22.08A47.63,47.63,0,0,1,642,135.19Zm-83.54,44.59c15.34-11.54,36.91-23,56-26.43a56.94,56.94,0,0,0-3.5,10.44c-12.21,11.76-20.75,24.09-24.86,35.62Zm55.34,18.31c-.65.07-1.29.17-1.94.24a109.6,109.6,0,0,0-17.08,2.83c2.86-7.35,7.89-15.26,14.67-23.06A55.88,55.88,0,0,0,613.75,198.09Zm-35,49.23c-.41-.67-.83-1.26-1.24-2-7.14-12.37-7.84-22.78-6.79-24.32,20.11-11.61,31.24-12.8,42-13.95,1-.11,2-.26,3-.38l-16,23a28.29,28.29,0,0,0-3.85,7.93L593.7,245l-6,3.49C585,250.07,581.66,250.43,578.76,247.32Zm10.29,43.37,14.61-48.86A59.34,59.34,0,0,0,624,245.07c18.2,0,40.37-6.11,62.14-17.47C663.45,266.25,612.48,285.34,589.05,290.69Zm89.22-38.58a111,111,0,0,0,10.18-12l3.5,6.05C687.41,248.4,682.83,250.37,678.27,252.11Zm24.46-11.66q-2.64,1.52-5.29,2.93l-5.14-8.9A93.49,93.49,0,0,0,698.43,223L707,237.85C705.57,238.72,704.18,239.61,702.73,240.45Zm9.44-5.92-9.6-16.63q4.68-3.09,9.06-6.37l9.55,16.56Q716.86,231.41,712.17,234.53Zm13.88-10.33-9.53-16.5c3-2.4,5.81-4.84,8.49-7.35l9.45,16.36C731.83,219.25,729,221.75,726.05,224.2Zm12.88-12-9.38-16.25c2.78-2.85,5.33-5.76,7.71-8.69l9.24,16A111.43,111.43,0,0,1,738.93,212.15Zm11.47-14.5-9.1-15.75c.61-.86,1.27-1.71,1.84-2.57a83.38,83.38,0,0,0,4.73-8.13l8.6,14.9A64.48,64.48,0,0,1,750.4,197.65Zm8.41-19.81L751,164.23a51.9,51.9,0,0,0,2.2-7.56l3.59,6.22C759.18,167.13,759.74,172.24,758.81,177.84Z"/><g class="cls-6"><ellipse cx="687.33" cy="304" rx="61.97" ry="16.51"/></g><rect class="cls-3" x="631.79" y="516.45" width="58.01" height="367.95"/><circle class="cls-3" cx="421.7" cy="253.15" r="30.88"/><circle class="cls-3" cx="910.23" cy="442.81" r="18.3"/><circle class="cls-4" cx="741.3" cy="246.71" r="6.58"/><circle class="cls-4" cx="729.55" cy="271.01" r="6.53"/><circle class="cls-4" cx="762.21" cy="272.27" r="8.87"/><path class="cls-2" d="M666.71,854.13a4.58,4.58,0,0,1-4.58-4.58V558.81a4.58,4.58,0,1,1,9.15,0V849.55A4.57,4.57,0,0,1,666.71,854.13Z"/><path class="cls-3" d="M474.92,487.62a19.4,19.4,0,0,1-19.36-19.39V392.76a23.46,23.46,0,0,1,18.5-22.84l321.8-68.2v-9.61A16.9,16.9,0,0,1,822,278l72.65,47.39h0a19.42,19.42,0,0,1,3.61,29.46l-73.11,78.69A16.89,16.89,0,0,1,795.86,422v-2L479,487.19A19.3,19.3,0,0,1,474.92,487.62ZM812.77,290.47a1.67,1.67,0,0,0-.79.21,1.54,1.54,0,0,0-.85,1.43v22l-333.9,70.76a8.14,8.14,0,0,0-6.41,7.91v75.47a4.13,4.13,0,0,0,5,4l335.33-71.07V422A1.63,1.63,0,0,0,814,423.1l73.11-78.69a4.15,4.15,0,0,0-.77-6.28h0l-72.64-47.38A1.6,1.6,0,0,0,812.77,290.47Z"/><polygon class="cls-7" points="895.8 331.89 811.74 271.42 803.5 298.93 463.19 371.06 463.19 473.76 803.5 401.64 810.95 422.09 895.8 331.89"/><polygon class="cls-8" points="891.48 341.9 810.95 289.37 810.95 313.43 470.64 385.55 470.64 473.47 810.95 401.34 810.95 426.59 891.48 341.9"/><path class="cls-3" d="M474.92,478.65a19.4,19.4,0,0,1-19.36-19.4V383.79A23.46,23.46,0,0,1,474.06,361l321.8-68.2v-9.61A16.9,16.9,0,0,1,822,269l72.65,47.38h0a19.42,19.42,0,0,1,3.61,29.46l-73.11,78.69A16.89,16.89,0,0,1,795.86,413v-2L479,478.22A19.3,19.3,0,0,1,474.92,478.65ZM812.77,281.5a1.67,1.67,0,0,0-.79.21,1.54,1.54,0,0,0-.85,1.43v22l-333.9,70.76a8.13,8.13,0,0,0-6.41,7.91v75.46a4.13,4.13,0,0,0,5,4l335.33-71.07V413a1.63,1.63,0,0,0,2.82,1.11l73.11-78.69a4.15,4.15,0,0,0-.77-6.28h0l-72.64-47.38A1.6,1.6,0,0,0,812.77,281.5Z"/><path class="cls-5" d="M545.1,435.22a1.74,1.74,0,0,1-1.37,1.59l-9.21,1.92a1.07,1.07,0,0,1-1.37-1V401.41l-12.38,24.64a2.63,2.63,0,0,1-2,1.82l-7.09,1.47a1.65,1.65,0,0,1-2-1l-12.72-19.43v36.29a1.74,1.74,0,0,1-1.37,1.59l-9.22,1.92a1.06,1.06,0,0,1-1.36-1V390.92a1.73,1.73,0,0,1,1.36-1.59l9.73-2a1.88,1.88,0,0,1,2.39.9l16.56,26,16.65-32.85a2.75,2.75,0,0,1,2.3-1.88l9.81-2a1.06,1.06,0,0,1,1.37,1Z"/><path class="cls-5" d="M604.39,422.92a1.72,1.72,0,0,1-1.28,1.57l-9.73,2a1,1,0,0,1-1.28-1V409.68l-23.3,4.83V430.3a1.73,1.73,0,0,1-1.28,1.58l-9.73,2a1,1,0,0,1-1.28-1v-34.1A31.23,31.23,0,0,1,565,377.52,28.82,28.82,0,0,1,580.4,369c6.58-1.36,11.7-.33,15.45,2.12,5.89,3.66,8.54,10.52,8.54,17.68Zm-32-37.41a17.56,17.56,0,0,0-3.58,11.21v6.63l23.3-4.84v-6.63c0-4.71-1.37-7.83-3.5-9.74-2.14-1.65-5-2.1-8.2-1.44A14.22,14.22,0,0,0,572.38,385.51Z"/><path class="cls-5" d="M643.88,415a2.33,2.33,0,0,1-2,1.72l-10.24,2.12c-1.11.24-1.71,0-2-.88L608.46,365.8a1.35,1.35,0,0,1,1-2l10.32-2.14c1.11-.24,1.8.06,2.14,1L636.71,402l.17,0,15.28-45.56a2.49,2.49,0,0,1,2.13-1.93l10.25-2.13c1-.21,1.45.49,1,1.62Z"/><path class="cls-5" d="M707.61,380.47l12.64,17.44c.59.92.68,2.13-.77,2.43l-10.67,2.21c-1.2.25-1.88.22-2.48-.79L694.9,384.85l-11,2.29v19.28a1.63,1.63,0,0,1-1.28,1.57L673,410a1.05,1.05,0,0,1-1.36-1V352.18a1.74,1.74,0,0,1,1.36-1.6l24.92-5.17c5.64-1.17,10.76-1.18,14.68,1,4.27,2.34,6.75,7.41,6.75,13.86a22.91,22.91,0,0,1-6.49,15.92A26.28,26.28,0,0,1,707.61,380.47ZM683.89,359V376.5l12-2.48c3.15-.66,5.71-1.45,7.51-3a10.19,10.19,0,0,0,3.5-8c0-3.49-1.29-5.5-3.25-6.48a11.08,11.08,0,0,0-6.74-.26Z"/><path class="cls-5" d="M764.18,333a2.87,2.87,0,0,1,2.22-1.77l11.18-2.32c1.37-.28,1.62.71.85,2l-21.59,37v23.38a1.73,1.73,0,0,1-1.28,1.57l-9.73,2a1,1,0,0,1-1.28-1V370.36l-21.42-28A1.35,1.35,0,0,1,724,340l11.18-2.32a1.66,1.66,0,0,1,2.13.86l13.4,18.16Z"/><path class="cls-5" d="M801.62,358.86l-4.69,5.86V383a1.64,1.64,0,0,1-1.28,1.57l-9.65,2a1.06,1.06,0,0,1-1.36-1v-56.8a1.74,1.74,0,0,1,1.36-1.59l9.65-2a1,1,0,0,1,1.28,1v22.6L817,322a4.44,4.44,0,0,1,2.65-1.86L832,317.58c1.11-.23,1.53.72.59,1.88l-22.36,28.37,23,26.62c.77.8.85,2.09-.69,2.41l-11.43,2.37a2.21,2.21,0,0,1-2.48-.79Z"/><polygon class="cls-3" points="903.41 341.92 903.41 330.26 898 330.26 903.41 341.92"/><path class="cls-3" d="M816.1,419.63a18.81,18.81,0,0,0,2.95-10.32,13,13,0,0,0-6.63-11.72,15.76,15.76,0,0,0-7.86-2,21.35,21.35,0,0,0-4.33.46,28.29,28.29,0,0,0-14.67,8.24,14.53,14.53,0,0,0-1.3-.85,16,16,0,0,0-8.1-2,24.39,24.39,0,0,0-4.81.51,26.65,26.65,0,0,0-15,8.76c-.12-.14-.26-.28-.38-.41a11.6,11.6,0,0,0-8.2-3.27,13.47,13.47,0,0,0-2.8.3,19.9,19.9,0,0,0-6.29,2.54l-.69-.77-4.36.89c-6.28,1.28-10.87,2.64-14,4.16l-2,1a41.51,41.51,0,0,0-5.31-.4,24.69,24.69,0,0,0-4.9.45l-4.34.88,0,.16a22.58,22.58,0,0,0-4,.45,20.87,20.87,0,0,0-12.37,8l-.23-.24a11.56,11.56,0,0,0-8.2-3.27,14.32,14.32,0,0,0-2.8.29,19.93,19.93,0,0,0-6.29,2.55l-.7-.77-4.35.88c-2.87.59-5.35,1.19-7.53,1.82a13.57,13.57,0,0,0,.37-3.08,11.89,11.89,0,0,0-4.32-9.5,11.56,11.56,0,0,0-7.33-2.49c-1,0-20.17,2.67-20.17,2.67L611.08,416a63.3,63.3,0,0,0-10.16,3l-.7.29a6.37,6.37,0,0,0-3.85,4.71l-.24,1.27a6.75,6.75,0,0,0,1.68,5.62,3.22,3.22,0,0,1,.75,2.44c0,.06-1.69,11.49-3.61,20.85-3.08,15-3.44,19.89-3.44,22.3v1.71a6.37,6.37,0,0,0,7.65,6.24l2.38-.48c6.86-1.4,11.14-3,13.87-5l.55-.42a6.37,6.37,0,0,0,2.5-5.06v-1.9a88,88,0,0,1,1.6-13.87c.58-.14,1.19-.27,1.83-.4a31.12,31.12,0,0,1,4.11-.57,36.82,36.82,0,0,0-1.17,8,12.3,12.3,0,0,0,4.06,9.67,11.39,11.39,0,0,0,7.65,2.81,14.55,14.55,0,0,0,2.89-.3,19.28,19.28,0,0,0,4.69-1.67v.07l10.66-2.16c5.28-1.08,8.89-2.28,11.36-3.77l1.26-.77a11.58,11.58,0,0,0,5.32,1.23,14.87,14.87,0,0,0,3-.31,21.43,21.43,0,0,0,8.07-3.78c1.25-.89,2.26-1.66,3.11-2.35a14,14,0,0,0,7.32,2,16.4,16.4,0,0,0,3.23-.33,17.12,17.12,0,0,0,4.88-1.85,6.18,6.18,0,0,1,3.77-.6,12.17,12.17,0,0,0,1.49.09,15.15,15.15,0,0,0,3.07-.33,17,17,0,0,0,3.63-1.2,6.4,6.4,0,0,1,1.34-.45l8.76-1.78c5.28-1.07,8.89-2.27,11.36-3.77l1.26-.77a11.55,11.55,0,0,0,5.32,1.24,14.9,14.9,0,0,0,3-.32,21.4,21.4,0,0,0,8.07-3.77l.62-.46a6.35,6.35,0,0,1,5.71-.87,16.13,16.13,0,0,0,5,.75,22,22,0,0,0,4.3-.46,25.67,25.67,0,0,0,6.54-2.33,30.55,30.55,0,0,0,5.06-3.13c1-.74,2-1.63,3-2.59a15,15,0,0,0,9,2.87,19.57,19.57,0,0,0,3.89-.41,29.73,29.73,0,0,0,12.17-5.57,46.51,46.51,0,0,0,3.78-3.3,21.27,21.27,0,0,0,3.44-4l.56-.88a6.38,6.38,0,0,0-.6-7.61L814.35,422A23.41,23.41,0,0,0,816.1,419.63ZM624.46,435l1.82-.23-.08,1c-.61.05-1.25.12-1.93.22C624.34,435.63,624.4,435.29,624.46,435Z"/><path class="cls-3" d="M816.1,424.84a18.81,18.81,0,0,0,2.95-10.32,13,13,0,0,0-6.63-11.72,15.76,15.76,0,0,0-7.86-2,21.35,21.35,0,0,0-4.33.46,28.29,28.29,0,0,0-14.67,8.24,14.53,14.53,0,0,0-1.3-.85,16,16,0,0,0-8.1-2,24.39,24.39,0,0,0-4.81.51,26.65,26.65,0,0,0-15,8.76c-.12-.14-.26-.28-.38-.41a11.6,11.6,0,0,0-8.2-3.27,13.47,13.47,0,0,0-2.8.3,19.9,19.9,0,0,0-6.29,2.54l-.69-.77-4.36.89c-6.28,1.28-10.87,2.64-14,4.16l-2,1a41.51,41.51,0,0,0-5.31-.4,24.69,24.69,0,0,0-4.9.45l-4.34.88,0,.16a22.58,22.58,0,0,0-4,.45,20.87,20.87,0,0,0-12.37,8l-.23-.24a11.56,11.56,0,0,0-8.2-3.27,14.32,14.32,0,0,0-2.8.29,19.93,19.93,0,0,0-6.29,2.55l-.7-.77-4.35.88c-2.87.59-5.35,1.19-7.53,1.82a13.57,13.57,0,0,0,.37-3.08,11.89,11.89,0,0,0-4.32-9.5,11.56,11.56,0,0,0-7.33-2.49,15.21,15.21,0,0,0-3,.32,2,2,0,0,1-1-.2,6.26,6.26,0,0,0-3.61-.25L625,418.78l-13.95,2.41a63.3,63.3,0,0,0-10.16,3.05l-.7.29a6.37,6.37,0,0,0-3.85,4.72l-.24,1.26a6.75,6.75,0,0,0,1.68,5.62,3.22,3.22,0,0,1,.75,2.44c0,.06-1.69,11.49-3.61,20.85-3.08,15-3.44,19.89-3.44,22.3v1.71a6.37,6.37,0,0,0,7.65,6.24l2.38-.48c6.86-1.4,11.14-2.95,13.87-5l.55-.42a6.37,6.37,0,0,0,2.5-5.06v-1.9a88,88,0,0,1,1.6-13.87c.58-.14,1.19-.27,1.83-.4a31.12,31.12,0,0,1,4.11-.57,36.82,36.82,0,0,0-1.17,8,12.34,12.34,0,0,0,4.06,9.68,11.43,11.43,0,0,0,7.65,2.8,14.55,14.55,0,0,0,2.89-.3,19.28,19.28,0,0,0,4.69-1.67v.07l10.66-2.16c5.28-1.08,8.89-2.27,11.36-3.77l1.26-.77a11.58,11.58,0,0,0,5.32,1.23,14.87,14.87,0,0,0,3-.31,21.43,21.43,0,0,0,8.07-3.78c1.25-.89,2.26-1.66,3.11-2.35a14,14,0,0,0,7.32,2,16.4,16.4,0,0,0,3.23-.33,17.12,17.12,0,0,0,4.88-1.85,6.18,6.18,0,0,1,3.77-.6,12.17,12.17,0,0,0,1.49.09,15.15,15.15,0,0,0,3.07-.33,17,17,0,0,0,3.63-1.2,6.4,6.4,0,0,1,1.34-.45l8.76-1.78c5.28-1.07,8.89-2.27,11.36-3.77l1.26-.77a11.55,11.55,0,0,0,5.32,1.24,14.9,14.9,0,0,0,3-.32,21.4,21.4,0,0,0,8.07-3.77l.62-.46a6.35,6.35,0,0,1,5.71-.87,16.13,16.13,0,0,0,5,.75,22,22,0,0,0,4.3-.46,25.67,25.67,0,0,0,6.54-2.33,30.55,30.55,0,0,0,5.06-3.13c1-.74,2-1.63,3-2.59a15,15,0,0,0,9,2.87,19.57,19.57,0,0,0,3.89-.41,29.73,29.73,0,0,0,12.17-5.57,46.51,46.51,0,0,0,3.78-3.3,21.27,21.27,0,0,0,3.44-4l.56-.88a6.36,6.36,0,0,0-.6-7.6l-1.42-1.62A23.41,23.41,0,0,0,816.1,424.84ZM624.46,440.18l1.82-.23-.08,1c-.61,0-1.25.12-1.93.22C624.34,440.84,624.4,440.5,624.46,440.18Z"/><path class="cls-4" d="M612.74,423.57l13.8-2.38,7.25-1.62a13.63,13.63,0,0,1,.22,2.79,5.3,5.3,0,0,1-.53,2.66,2.52,2.52,0,0,1-1.8,1.15q-1.26.25-5.39.74t-6.09.89l-2.53.65q-.28,2.76-3.38,17.92,5.34-1.59,8.94-2.32a21.33,21.33,0,0,1,5.56-.56,13.76,13.76,0,0,1-1.26,5.36,35.47,35.47,0,0,0-7.19.83,54.47,54.47,0,0,0-7,1.85q-2.61,13.37-2.61,20v1.21q-2.54,1.94-10.7,3.59l-.71.15q0-4.83,3.28-20.73t4-22.72a6.07,6.07,0,0,0-.71-2.59,9.35,9.35,0,0,0-1.48-2.29l-.7-.85.21-1.1A53.83,53.83,0,0,1,612.74,423.57Z"/><path class="cls-4" d="M646.75,439.62q0,3-1.9,10.64c-1.27,5.1-1.9,8.4-1.9,9.88s.21,2.2.63,2.11a20.2,20.2,0,0,0,3.24-2l.85-.59,1.2,2.23c-.43.47-1,1.06-1.69,1.76a33.15,33.15,0,0,1-3.95,3.11,14.47,14.47,0,0,1-5.35,2.54,4.29,4.29,0,0,1-3.88-.73,4.84,4.84,0,0,1-1.4-3.83,47.45,47.45,0,0,1,1.76-9.57q1.75-7,1.76-9a8.08,8.08,0,0,0-1.83-5.23l-.64-.72.07-.93q3.74-1.83,12.12-3.53C646.45,436.35,646.75,437.64,646.75,439.62Zm-8-10.17a4,4,0,0,1-1.41-3.43,6.71,6.71,0,0,1,1.93-4.51,8.09,8.09,0,0,1,4.47-2.68,4.6,4.6,0,0,1,3.95.61,4.15,4.15,0,0,1,1.41,3.44,6.59,6.59,0,0,1-2,4.48,8.33,8.33,0,0,1-4.47,2.69A4.59,4.59,0,0,1,638.73,429.45Z"/><path class="cls-4" d="M653.23,465.53l-1.34.28q0-3.35,2-13.18t2-11.11a6.87,6.87,0,0,0-2-4.56l-.64-.72.07-.94q3.81-1.85,12.19-3.54c.61.68.94,2.07,1,4.19q6.13-6,10.36-6.85A4.26,4.26,0,0,1,681,430a5.48,5.48,0,0,1,1.51,4.13,49.58,49.58,0,0,1-1.62,9.51,50.74,50.74,0,0,0-1.62,9.09c0,1.48.19,2.19.57,2.12a17.18,17.18,0,0,0,3-1.95l.85-.6,1.27,2.22c-.43.47-1,1.05-1.69,1.76a33.55,33.55,0,0,1-3.91,3.1,13.84,13.84,0,0,1-5.11,2.49Q669,463,669,457.08a53.41,53.41,0,0,1,1.58-9.47,55.81,55.81,0,0,0,1.59-8.9c0-1.28-.4-1.84-1.2-1.67a12.72,12.72,0,0,0-5,2.78q-.21,1.26-1.41,6.67-2.46,11.64-2.46,16.24Q659.64,464.23,653.23,465.53Z"/><path class="cls-4" d="M708.1,424.8a14.23,14.23,0,0,0,.78-2,26.81,26.81,0,0,1,8.87.18,113.14,113.14,0,0,0-2.82,12.88,69.68,69.68,0,0,0-1,9.36c0,1.82.18,2.69.56,2.62a19.29,19.29,0,0,0,3.1-2l.84-.6,1.27,2.22c-.42.47-1,1-1.65,1.76a31.8,31.8,0,0,1-3.84,3.08,13.87,13.87,0,0,1-5.07,2.49q-4.38.88-5.07-2.94-4.51,4.89-8.14,5.62a6.55,6.55,0,0,1-6.13-1.58c-1.67-1.56-2.5-4.36-2.5-8.43q0-9.5,3.87-15.78t9.37-7.4A13.92,13.92,0,0,1,708.1,424.8Zm-8,25.82a9,9,0,0,0,3.8-2.12A96.06,96.06,0,0,1,707.18,428a8.52,8.52,0,0,0-3.59-.19q-2.54.51-4.33,5.88a35.53,35.53,0,0,0-1.8,11.39Q697.46,451.15,700.07,450.62Z"/><path class="cls-4" d="M722.82,451.38l-1.34.27q0-3.33,2-13.17t2-11.12a6.87,6.87,0,0,0-2-4.56l-.64-.72.07-.94a56.39,56.39,0,0,1,12.19-3.54c.61.68.94,2.08,1,4.2q6.14-6,10.36-6.86a4.26,4.26,0,0,1,4,.95,5.47,5.47,0,0,1,1.51,4.12,49.34,49.34,0,0,1-1.62,9.51,50.74,50.74,0,0,0-1.62,9.09c0,1.49.19,2.2.57,2.12a17.18,17.18,0,0,0,3-2l.85-.6,1.27,2.23c-.43.46-1,1-1.7,1.76a33.41,33.41,0,0,1-3.9,3.1,14.24,14.24,0,0,1-5.11,2.49q-5.15,1-5.14-4.84a53.55,53.55,0,0,1,1.58-9.47,55.62,55.62,0,0,0,1.59-8.9c0-1.28-.4-1.83-1.2-1.67a12.9,12.9,0,0,0-5,2.79c-.14.83-.61,3.06-1.41,6.67Q731.7,444,731.7,448.58,729.22,450.08,722.82,451.38Z"/><path class="cls-4" d="M772.9,413.11c-1.88.39-3.38,2.26-4.51,5.63a32.72,32.72,0,0,0-1.69,10.45q0,8.52,5.21,7.45a10.81,10.81,0,0,0,3.59-1.54,23,23,0,0,0,3-2.22l1.06-1.06,1.62,1.87A16.34,16.34,0,0,1,779,436.2a41.41,41.41,0,0,1-3.17,2.77,24,24,0,0,1-3.81,2.34A18.45,18.45,0,0,1,767.4,443q-5.49,1.11-8.24-1.94t-2.74-9.16A23.74,23.74,0,0,1,761,417.23a19.16,19.16,0,0,1,11.87-7.66q4.71-1,7.5.64a5.15,5.15,0,0,1,2.78,4.75,9.62,9.62,0,0,1-2,5.82,12.3,12.3,0,0,1-4.09.05,7.45,7.45,0,0,1-3.52-1.2l1.06-6.45A2.87,2.87,0,0,0,772.9,413.11Z"/><path class="cls-4" d="M784.38,426.38a22.42,22.42,0,0,1,5.32-15.09q5.31-6.23,12.07-7.6a9.73,9.73,0,0,1,6.84.67,5.25,5.25,0,0,1,2.67,4.95,11.1,11.1,0,0,1-1.72,6.13,16.44,16.44,0,0,1-4.19,4.47,39.94,39.94,0,0,1-9.16,5l-1.69.56q.5,6.56,5.42,5.56a10.68,10.68,0,0,0,3.6-1.58,18.06,18.06,0,0,0,3-2.31l1.06-1.06,1.69,1.92A15.34,15.34,0,0,1,807,430.5a41.7,41.7,0,0,1-3.17,2.77,21.88,21.88,0,0,1-9,4.09q-4.86,1-7.67-1.91T784.38,426.38Zm15.78-8.6a10.94,10.94,0,0,0,2.11-6.67c0-2.55-.75-3.68-2.25-3.37-1.79.36-3.16,2.17-4.13,5.41a31.4,31.4,0,0,0-1.44,8.84A12.51,12.51,0,0,0,800.16,417.78Z"/><polygon class="cls-3" points="596.06 425.76 596.04 432.07 597.81 430.92 597.77 427.36 596.06 425.76"/></svg>