<svg id="Layer_1" data-name="Layer 1" xmlns="http://www.w3.org/2000/svg" xmlns:xlink="http://www.w3.org/1999/xlink" viewBox="0 0 1326.47 884.13"><defs><style>.cls-1{fill:url(#radial-gradient);}.cls-2{fill:#4f457c;}.cls-3{fill:#88d1c3;}.cls-4{fill:#7996c9;}.cls-5{fill:#fff;}.cls-6{opacity:0.15;}.cls-7{fill:#ffaeae;}.cls-8{fill:#ff8080;}.cls-9{fill:none;}</style><radialGradient id="radial-gradient" cx="659" cy="884.75" r="588.78" gradientTransform="translate(-56.58 -5.9) scale(1.09 1.01)" gradientUnits="userSpaceOnUse"><stop offset="0" stop-color="#fff" stop-opacity="0.5"/><stop offset="0.14" stop-color="#f7f6f9" stop-opacity="0.48"/><stop offset="0.34" stop-color="#dfdde7" stop-opacity="0.41"/><stop offset="0.56" stop-color="#b8b4ca" stop-opacity="0.3"/><stop offset="0.81" stop-color="#827ba2" stop-opacity="0.14"/><stop offset="1" stop-color="#4f457c" stop-opacity="0"/></radialGradient></defs><path class="cls-1" d="M663,283.52C297,283.52.24,552.42.24,884.12H1325.78C1325.78,552.42,1029.05,283.52,663,283.52Z"/><path class="cls-2" d="M201.74,884.39V839a6.67,6.67,0,0,1,6.67-6.67h87.28a6.67,6.67,0,0,0,6.67-6.67V813a6.65,6.65,0,0,1,4.53-6.31l104.2-35.26a6.67,6.67,0,0,1,8.81,6.31v25.84a6.67,6.67,0,0,0,6.66,6.67h59.52a6.67,6.67,0,0,0,6.67-6.67V773.39a6.67,6.67,0,0,1,6.67-6.67H595a6.67,6.67,0,0,0,6.67-6.67V749.3a6.67,6.67,0,0,1,6.67-6.67H755.92a6.67,6.67,0,0,1,6.67,6.67v34.36a6.67,6.67,0,0,0,6.67,6.67h67.47A6.67,6.67,0,0,1,843.4,797v13.71a6.67,6.67,0,0,0,6.66,6.67h58.67a6.67,6.67,0,0,0,6.67-6.67V796.29a5.92,5.92,0,0,1,6.65-5.87l97.22,12.11a5.92,5.92,0,0,1,5.19,5.87v10.69a5.91,5.91,0,0,0,5.91,5.91h88.56a6.67,6.67,0,0,1,6.66,6.67v52.72Z"/><polygon class="cls-2" points="384.75 620.91 368.26 620.91 362.01 813 391 813 384.75 620.91"/><circle class="cls-2" cx="376.51" cy="643.47" r="33.6"/><rect class="cls-2" x="314.71" y="637.83" width="123.6" height="11.28" rx="5.64"/><rect class="cls-2" x="348.14" y="614.08" width="56.73" height="5.18" rx="2.59" transform="translate(-240.17 993.18) rotate(-90)"/><circle class="cls-2" cx="376.51" cy="590.77" r="9.25"/><path class="cls-2" d="M1008.3,676H927.9a7,7,0,0,0-6.87,5,6.9,6.9,0,0,0,6.63,8.74h9.13a32.17,32.17,0,0,0,16.37,21.12,10,10,0,0,1,5.42,9.31c-1.09,25.36-4.76,111.07-4.76,111.07h28.32l-4.76-111.06a10,10,0,0,1,5.42-9.32,32.17,32.17,0,0,0,16.37-21.12h8.89a7,7,0,0,0,6.87-5A6.9,6.9,0,0,0,1008.3,676Z"/><rect class="cls-2" x="944.44" y="676.7" width="47.08" height="4.3" rx="2.15" transform="translate(289.13 1646.82) rotate(-90)"/><circle class="cls-2" cx="967.98" cy="657.35" r="7.68"/><rect class="cls-2" x="294.96" y="791.19" width="63.26" height="5.77" rx="2.89" transform="translate(-467.48 1120.67) rotate(-90)"/><rect class="cls-2" x="754.32" y="781.55" width="63.26" height="5.77" rx="2.89" transform="translate(1.51 1570.39) rotate(-90)"/><rect class="cls-2" x="570.47" y="726.88" width="86.83" height="7.92" rx="3.96" transform="translate(-116.96 1344.72) rotate(-90)"/><rect class="cls-2" x="888.3" y="795.57" width="86.83" height="7.92" rx="3.96" transform="translate(132.19 1731.25) rotate(-90)"/><rect class="cls-2" x="963.16" y="802.84" width="73.05" height="15.88" rx="7.94" transform="translate(188.9 1810.46) rotate(-90)"/><path class="cls-2" d="M853.71,679.13H771.3a8.73,8.73,0,0,0-8.68,6.77,8.5,8.5,0,0,0,8.31,10.18h20.3a14.25,14.25,0,0,1,14.24,14.72l-3.85,107.5H823l-3.85-107.5a14.25,14.25,0,0,1,14.24-14.72h19.93a8.74,8.74,0,0,0,8.68-6.77A8.5,8.5,0,0,0,853.71,679.13Z"/><path class="cls-2" d="M485.56,729.86a5.92,5.92,0,0,0,5.68-7.5,6,6,0,0,0-5.89-4.29h-23v-2.81a6.64,6.64,0,0,0-4.74-6.49,6.52,6.52,0,0,0-8.27,6.26v3H426.44a6,6,0,0,0-5.89,4.29,5.92,5.92,0,0,0,5.68,7.5h11.39a11.77,11.77,0,0,1,11.77,11.77v5H432a6,6,0,0,0-5.89,4.29,5.92,5.92,0,0,0,5.68,7.5h5.8a11.77,11.77,0,0,1,11.77,11.77v46.3a6.66,6.66,0,0,0,4.74,6.5,6.53,6.53,0,0,0,8.27-6.27V770.18a11.77,11.77,0,0,1,11.77-11.77h5.59a6,6,0,0,0,5.89-4.3,5.91,5.91,0,0,0-5.68-7.49H462.4v-5a11.77,11.77,0,0,1,11.77-11.77Z"/><path class="cls-2" d="M778.59,681.48a33.73,33.73,0,1,1,67.46,0"/><path class="cls-2" d="M519.5,773.89s30.59-45.22,30.59-125.39h16.83V784.44Z"/><rect class="cls-2" x="530.68" y="640.02" width="56.04" height="14.91" rx="7.46"/><path class="cls-2" d="M579.26,671.67H559v14.91h20.22a7.46,7.46,0,1,0,0-14.91Z"/><path class="cls-2" d="M579.26,703.32H559v14.91h20.22a7.46,7.46,0,1,0,0-14.91Z"/><path class="cls-2" d="M579.26,735H559v14.92h20.22a7.46,7.46,0,1,0,0-14.92Z"/><path class="cls-2" d="M747.28,700.61H708.21a5.17,5.17,0,0,0-5.18,4.1,5,5,0,0,0,4.88,5.8h1.77a13,13,0,0,1,13,13v21.15a5.16,5.16,0,0,0,4.11,5.18,5,5,0,0,0,5.8-4.88V723.47a13,13,0,0,1,13-13H747a5.16,5.16,0,0,0,5.18-4.11A5,5,0,0,0,747.28,700.61Z"/><path class="cls-2" d="M877.23,773.76V717.94a8.2,8.2,0,0,1,2.41-5.8l9.46-9.47a2.26,2.26,0,0,1,3.86,1.6v30l8.63,8.63a8.25,8.25,0,0,1,2.4,5.81v75.42H855.57v-25a9,9,0,0,1,2.64-6.38Z"/><circle class="cls-2" cx="1062.32" cy="825" r="25.47"/><circle class="cls-2" cx="455.89" cy="812.6" r="22.78"/><path class="cls-2" d="M249.75,826.24v-5.62h19.44a1.79,1.79,0,0,0,1.78-1.94c-.05-.54-.1-1.08-.16-1.61a2.9,2.9,0,0,0-2.9-2.56H249.75v-5.62h17a1.78,1.78,0,0,0,1.68-2.36c-.23-.67-.49-1.33-.75-2a2.92,2.92,0,0,0-2.69-1.79H249.75v-5.62h9.79a1.79,1.79,0,0,0,1.25-3.06,16,16,0,0,0-11-4.86c-11.82,0-21.41,15.21-21.41,34s9.59,34,21.41,34c10.76,0,19.66-12.59,21.18-29a1.79,1.79,0,0,0-1.78-2Z"/><circle class="cls-3" cx="445.74" cy="566.17" r="2.51"/><circle class="cls-3" cx="282.83" cy="399.05" r="2.51"/><circle class="cls-3" cx="497.7" cy="605.73" r="2.9"/><circle class="cls-3" cx="533.86" cy="581.05" r="2.51"/><circle class="cls-3" cx="611.66" cy="633.69" r="2.9"/><circle class="cls-3" cx="469.18" cy="663.78" r="4.39"/><circle class="cls-3" cx="285.39" cy="602.83" r="2.56"/><circle class="cls-3" cx="209.42" cy="718.23" r="3.18"/><circle class="cls-3" cx="347.45" cy="495.36" r="3.87"/><circle class="cls-3" cx="410.78" cy="418.68" r="4.27"/><circle class="cls-3" cx="892.79" cy="616.67" r="4.24"/><circle class="cls-3" cx="748.93" cy="624.49" r="6.59"/><circle class="cls-3" cx="810.73" cy="569.47" r="1.86"/><circle class="cls-3" cx="362.01" cy="313.3" r="1.86"/><circle class="cls-3" cx="1046.31" cy="379.82" r="1.86"/><circle class="cls-3" cx="1029.48" cy="624.49" r="4.24"/><circle class="cls-3" cx="1113.92" cy="748.71" r="2.91"/><circle class="cls-3" cx="853.34" cy="449.83" r="2.91"/><circle class="cls-3" cx="960.3" cy="414.81" r="5.56"/><path class="cls-3" d="M967,551.2a3,3,0,1,1-3-3A3,3,0,0,1,967,551.2Z"/><path class="cls-3" d="M920.78,278.55a3,3,0,1,1-3-3A3,3,0,0,1,920.78,278.55Z"/><circle class="cls-3" cx="232.9" cy="537.05" r="3.03"/><circle class="cls-3" cx="1053.11" cy="525.44" r="4.94"/><path class="cls-2" d="M133.86,884.12h85.41V854.25H157.33a14.61,14.61,0,0,0-13.19,8.33Z"/><path class="cls-2" d="M1187.44,884.13H1102V854.25H1164a14.62,14.62,0,0,1,13.2,8.33Z"/><rect class="cls-4" x="631.78" y="515.24" width="57.83" height="369.15"/><path class="cls-2" d="M654.91,532.08c-99.52,0-180.49-81-180.49-180.5s81-180.49,180.49-180.49,180.49,81,180.49,180.49S754.43,532.08,654.91,532.08Zm0-345.77c-91.13,0-165.27,74.14-165.27,165.27s74.14,165.28,165.27,165.28,165.27-74.14,165.27-165.28S746,186.31,654.91,186.31Z"/><circle class="cls-3" cx="654.91" cy="336.42" r="172.36"/><circle class="cls-4" cx="642.92" cy="348.42" r="160.36"/><path class="cls-4" d="M654.91,517.44c-99.52,0-180.49-81-180.49-180.49s81-180.5,180.49-180.5S835.4,237.42,835.4,337,754.43,517.44,654.91,517.44Zm0-345.77c-91.13,0-165.27,74.14-165.27,165.28s74.14,165.27,165.27,165.27S820.18,428.08,820.18,337,746,171.67,654.91,171.67Z"/><path class="cls-3" d="M588.57,206.28l-37.28-26.52c15.94-13.12,45.53-30.52,70.93-31.86"/><ellipse class="cls-4" cx="683.95" cy="203.93" rx="89.92" ry="44.67" transform="translate(-10.33 369.3) rotate(-30)"/><path class="cls-5" d="M542.39,243.14c-10.32,6-21.38,22.76-24.22,34.37,11.47,3.34,31.56,2.16,41.87-3.79a17.65,17.65,0,1,0-17.65-30.58Z"/><ellipse class="cls-5" cx="670.14" cy="180" rx="89.92" ry="44.67" transform="translate(-0.22 359.18) rotate(-30)"/><ellipse class="cls-3" cx="661.17" cy="183.75" rx="80.28" ry="33.4" transform="translate(-3.29 355.2) rotate(-30)"/><path class="cls-5" d="M737.14,181.21l12.36,21.41s5.64-4.43,7.62-8.44,10.62-19.76,4.21-31.21-9.06-15-10.93-8.46S737.14,181.21,737.14,181.21Z"/><path class="cls-3" d="M641.39,237.9c-13.45,2.3-19.41,1.77-28-.27s-7.58,1.2-12.29,7.1-18.24,51.1-18.24,51.1,18.12,1.77,38.56-10,69.23-45.69,68.7-56.83-4.55-2.46-17.61,1.23S641.39,237.9,641.39,237.9Z"/><path class="cls-5" d="M556,181c21.29-11.4,45.26-22,58.89-19,0,0,7.17-12.77,4.82-13.89S568,167.23,558.53,174.21,556,181,556,181Z"/><path class="cls-3" d="M610.34,202.66c-13.39,3.65-24.79,8-33,12.24s-11.51,5.9-11,9.79,10.11,26.79,14.82,29.42,12-1.2,14.52-7.4,2.56-9.46,10.57-18.78S628.45,201.63,610.34,202.66Z"/><path class="cls-5" d="M568.84,229.21A162,162,0,0,1,613.37,211l-5.09,9.69L572.2,241.5Z"/><path class="cls-5" d="M587.42,290.5c14.36-5.44,55.8-21.42,82.28-56.06,0,0,18.33-12.44,21.08-12.17s-16.59,31.54-43.75,47S583.09,301.78,587.42,290.5Z"/><path class="cls-3" d="M710.52,150.31c14.32,24.79-75.46,76.63-89.78,51.83a51.83,51.83,0,0,1,89.78-51.83Z"/><g class="cls-6"><ellipse cx="687.15" cy="303.43" rx="61.78" ry="16.46"/></g><circle class="cls-3" cx="740.96" cy="246.32" r="6.56"/><circle class="cls-3" cx="729.24" cy="270.54" r="6.51"/><circle class="cls-3" cx="761.8" cy="271.8" r="8.84"/><path class="cls-3" d="M666.59,850.22a4.57,4.57,0,0,1-4.57-4.57V557.47a4.57,4.57,0,1,1,9.13,0V845.65A4.56,4.56,0,0,1,666.59,850.22Z"/><circle class="cls-2" cx="419.25" cy="266.9" r="30.79"/><circle class="cls-2" cx="906.29" cy="455.99" r="18.25"/><path class="cls-2" d="M784.32,356.58l-8,12.95c120.41,74.39,151.73,116.9,147.54,124.87-2,3.86-22.18,9-90.12-13.21-57-18.64-129.13-50.36-203.22-89.33S489.38,311.41,441.75,275c-56.82-43.38-64-62.9-62-66.76,2.61-4.95,31.63-9.94,126.64,26.16h0l9.2-12.17,2.13.22c-89.66-34.74-140.6-41.91-151.44-21.3C343.87,243.9,524.68,353.4,623.43,405.33c74.83,39.35,147.84,71.43,205.58,90.32C869.12,508.78,894.08,513,909.78,513c21.5,0,25.65-7.88,27.55-11.49C954.73,468.41,848.93,396.5,784.32,356.58Z"/><circle class="cls-4" cx="909.38" cy="441.83" r="18.25"/><path class="cls-4" d="M912.86,498.82c-15.7,0-40.66-4.2-80.77-17.33-57.74-18.89-130.75-51-205.57-90.32C527.77,339.24,347,229.74,369.41,187,380.65,165.65,435,174.15,531,212.3l-5.62,14.14c-107.68-42.8-139.73-37.54-142.48-32.32-2,3.86,5.14,23.38,62,66.76C492.47,297.25,559.5,338.73,633.6,377.7S779.87,448.39,836.82,467c67.94,22.23,88.09,17.07,90.12,13.21,4.2-8-27.13-50.49-147.54-124.87l8-12.95c64.61,39.92,170.41,111.83,153,144.91C938.51,490.94,934.37,498.81,912.86,498.82Z"/><circle class="cls-4" cx="422.33" cy="252.74" r="30.79"/><path class="cls-2" d="M475.38,488.81a19.35,19.35,0,0,1-19.3-19.33V394.24a23.39,23.39,0,0,1,18.45-22.77l320.83-68V293.9a16.84,16.84,0,0,1,26-14.11L893.82,327h0a19.35,19.35,0,0,1,3.6,29.37l-72.89,78.45a16.84,16.84,0,0,1-29.17-11.46v-2l-315.94,67A19.8,19.8,0,0,1,475.38,488.81ZM812.21,292.26a1.7,1.7,0,0,0-.79.21,1.54,1.54,0,0,0-.85,1.43v21.9L477.69,386.36a8.1,8.1,0,0,0-6.39,7.88v75.24a4.11,4.11,0,0,0,5,4l334.31-70.86v20.75a1.62,1.62,0,0,0,2.81,1.1L886.27,346a4.11,4.11,0,0,0-.76-6.26h0l-72.43-47.24A1.55,1.55,0,0,0,812.21,292.26Z"/><polygon class="cls-7" points="894.99 331.24 811.18 270.96 802.97 298.38 463.69 370.29 463.69 472.68 802.97 400.78 810.39 421.17 894.99 331.24"/><polygon class="cls-8" points="890.68 341.22 810.39 288.85 810.39 312.83 471.12 384.74 471.12 472.39 810.39 400.48 810.39 425.65 890.68 341.22"/><path class="cls-4" d="M475.38,477.55a19.33,19.33,0,0,1-19.3-19.33V383a23.39,23.39,0,0,1,18.45-22.77l320.83-68v-9.58a16.84,16.84,0,0,1,26-14.11l72.42,47.24h0a19.35,19.35,0,0,1,3.6,29.37l-72.89,78.45a16.84,16.84,0,0,1-29.17-11.46v-2l-315.94,67A19.8,19.8,0,0,1,475.38,477.55ZM812.21,281a1.7,1.7,0,0,0-.79.21,1.54,1.54,0,0,0-.85,1.43v21.91L477.69,375.1A8.1,8.1,0,0,0,471.3,383v75.24a4.11,4.11,0,0,0,5,4l334.31-70.86v20.75a1.49,1.49,0,0,0,1,1.51,1.47,1.47,0,0,0,1.78-.41l72.89-78.45a4.11,4.11,0,0,0-.76-6.26h0l-72.43-47.24A1.55,1.55,0,0,0,812.21,281Z"/><path class="cls-5" d="M545.35,434.26a1.73,1.73,0,0,1-1.36,1.59l-9.19,1.9a1.06,1.06,0,0,1-1.36-1V400.55L521.1,425.12a2.64,2.64,0,0,1-2,1.81L512,428.4a1.67,1.67,0,0,1-2-1l-12.67-19.37v36.18a1.73,1.73,0,0,1-1.36,1.58l-9.2,1.91a1.06,1.06,0,0,1-1.36-1V390.09a1.75,1.75,0,0,1,1.36-1.59l9.7-2a1.87,1.87,0,0,1,2.38.9l16.51,25.88,16.6-32.75a2.73,2.73,0,0,1,2.29-1.87l9.79-2a1.05,1.05,0,0,1,1.36,1Z"/><path class="cls-5" d="M604.46,422a1.72,1.72,0,0,1-1.28,1.57l-9.7,2a1,1,0,0,1-1.28-1V408.8L569,413.62v15.74a1.74,1.74,0,0,1-1.28,1.57l-9.7,2a1,1,0,0,1-1.27-1v-34a31.1,31.1,0,0,1,8.51-21.16,28.67,28.67,0,0,1,15.31-8.48c6.55-1.36,11.65-.33,15.4,2.11,5.87,3.65,8.51,10.49,8.51,17.63Zm-31.91-37.3A17.57,17.57,0,0,0,569,395.87v6.61l23.22-4.82v-6.61c0-4.69-1.36-7.8-3.48-9.71-2.13-1.65-5-2.09-8.17-1.44A14.25,14.25,0,0,0,572.55,384.69Z"/><path class="cls-5" d="M643.84,414.08a2.33,2.33,0,0,1-2,1.71l-10.21,2.12c-1.11.23-1.71,0-2-.88l-21.11-52a1.35,1.35,0,0,1,1-2l10.3-2.13c1.11-.23,1.79.06,2.13,1l14.72,39.22.17,0,15.23-45.43a2.48,2.48,0,0,1,2.12-1.92l10.22-2.12c1-.21,1.44.49,1,1.62Z"/><path class="cls-5" d="M707.37,379.67,720,397.06c.59.92.68,2.12-.77,2.42l-10.64,2.21c-1.19.25-1.87.21-2.47-.79L694.7,384l-11,2.28v19.22a1.63,1.63,0,0,1-1.28,1.57l-9.61,2a1.06,1.06,0,0,1-1.37-1V351.47a1.74,1.74,0,0,1,1.37-1.59l24.84-5.16c5.62-1.16,10.72-1.18,14.64,1,4.25,2.33,6.72,7.39,6.72,13.82a22.85,22.85,0,0,1-6.47,15.87A26.06,26.06,0,0,1,707.37,379.67Zm-23.65-21.44v17.48l11.91-2.47c3.15-.65,5.7-1.45,7.49-3a10.21,10.21,0,0,0,3.49-7.95c0-3.48-1.28-5.47-3.24-6.46a11.1,11.1,0,0,0-6.72-.25Z"/><path class="cls-5" d="M763.77,332.31a2.84,2.84,0,0,1,2.21-1.76l11.15-2.32c1.36-.28,1.61.71.85,2l-21.53,36.91v23.31a1.73,1.73,0,0,1-1.28,1.57l-9.7,2a1,1,0,0,1-1.28-1v-23.4l-21.35-27.92a1.35,1.35,0,0,1,.85-2.35L734.84,337a1.65,1.65,0,0,1,2.12.86L750.32,356Z"/><path class="cls-5" d="M801.1,358.13,796.42,364v18.17a1.63,1.63,0,0,1-1.28,1.57l-9.62,2a1.06,1.06,0,0,1-1.36-1V328.08a1.74,1.74,0,0,1,1.36-1.59l9.62-2a1,1,0,0,1,1.28,1v22.53l20-26.68a4.43,4.43,0,0,1,2.64-1.85L831.39,317c1.11-.23,1.53.73.59,1.88l-22.29,28.28,23,26.54c.76.8.85,2.09-.69,2.41l-11.4,2.36a2.18,2.18,0,0,1-2.46-.79Z"/><path class="cls-2" d="M815.53,424.24a18.79,18.79,0,0,0,3-10.29,13,13,0,0,0-6.62-11.68,15.67,15.67,0,0,0-7.83-2,22.16,22.16,0,0,0-4.33.46A28.27,28.27,0,0,0,785.08,409a13.07,13.07,0,0,0-1.29-.85,16,16,0,0,0-8.07-2,24.26,24.26,0,0,0-4.8.52,26.41,26.41,0,0,0-15,8.73c-.13-.14-.26-.29-.39-.41a11.52,11.52,0,0,0-8.17-3.26,14.24,14.24,0,0,0-2.8.29,20,20,0,0,0-6.26,2.54l-.69-.77-4.35.89c-6.27,1.27-10.84,2.63-14,4.14l-2,1a43,43,0,0,0-5.29-.4,24.56,24.56,0,0,0-4.88.45l-4.32.88-.06.16a22.57,22.57,0,0,0-4,.45,20.88,20.88,0,0,0-12.33,8l-.23-.24A11.52,11.52,0,0,0,678,425.8a13.57,13.57,0,0,0-2.79.29,19.89,19.89,0,0,0-6.27,2.54l-.69-.77-4.34.88c-2.86.58-5.33,1.19-7.51,1.81a13,13,0,0,0,.37-3.07,11.84,11.84,0,0,0-4.31-9.47,11.53,11.53,0,0,0-7.3-2.48,15,15,0,0,0-3,.32,2,2,0,0,1-1-.2,6.06,6.06,0,0,0-3.6-.25L625,418.19l-13.9,2.41a61.73,61.73,0,0,0-10.14,3l-.7.28a6.38,6.38,0,0,0-3.84,4.7l-.24,1.27a6.78,6.78,0,0,0,1.68,5.6,3.18,3.18,0,0,1,.75,2.43c0,.06-1.68,11.45-3.6,20.79-3.07,14.92-3.43,19.83-3.43,22.23v1.71a6.36,6.36,0,0,0,7.63,6.22l2.37-.49c6.84-1.39,11.11-2.94,13.83-5L616,483a6.35,6.35,0,0,0,2.49-5V476a88.61,88.61,0,0,1,1.59-13.84l1.83-.39a31,31,0,0,1,4.1-.57,36.48,36.48,0,0,0-1.17,8,12.29,12.29,0,0,0,4,9.64,11.4,11.4,0,0,0,7.64,2.79,14.36,14.36,0,0,0,2.87-.3,19,19,0,0,0,4.69-1.66v.08l10.62-2.16c5.26-1.08,8.86-2.27,11.32-3.77l1.26-.76a11.49,11.49,0,0,0,5.3,1.23,15.72,15.72,0,0,0,3-.31,21.29,21.29,0,0,0,8-3.77c1.25-.89,2.26-1.66,3.1-2.34a14,14,0,0,0,7.3,2,16.3,16.3,0,0,0,3.22-.33,16.86,16.86,0,0,0,4.86-1.84,6.16,6.16,0,0,1,3.76-.6,12.17,12.17,0,0,0,1.49.09,15.05,15.05,0,0,0,3.06-.33,16.88,16.88,0,0,0,3.62-1.2,6.48,6.48,0,0,1,1.33-.44l8.74-1.78c5.26-1.07,8.86-2.26,11.32-3.76l1.26-.76a11.49,11.49,0,0,0,5.3,1.23,14.73,14.73,0,0,0,3-.32,21.22,21.22,0,0,0,8.05-3.76l.62-.45a6.35,6.35,0,0,1,5.69-.88,16,16,0,0,0,5,.75,21,21,0,0,0,4.29-.46,26.06,26.06,0,0,0,6.53-2.31,30.73,30.73,0,0,0,5-3.13c.95-.74,2-1.62,3-2.58a14.93,14.93,0,0,0,8.94,2.86,20.19,20.19,0,0,0,3.87-.4A29.78,29.78,0,0,0,808.05,444a46.21,46.21,0,0,0,3.76-3.29,21.52,21.52,0,0,0,3.43-4l.56-.89a6.35,6.35,0,0,0-.6-7.58l-1.41-1.61A24.78,24.78,0,0,0,815.53,424.24Zm-191.06,15.3,1.81-.24-.07,1c-.61.05-1.25.12-1.93.22C624.35,440.19,624.41,439.86,624.47,439.54Z"/><polygon class="cls-2" points="596.16 424.83 596.14 431.12 597.9 429.97 597.86 426.42 596.16 424.83"/><path class="cls-2" d="M815.53,418.72a18.79,18.79,0,0,0,3-10.29,13,13,0,0,0-6.62-11.69,15.77,15.77,0,0,0-7.83-2,21.42,21.42,0,0,0-4.33.46,28.13,28.13,0,0,0-14.62,8.21,13.07,13.07,0,0,0-1.29-.85,16,16,0,0,0-8.07-2,24.22,24.22,0,0,0-4.8.51,26.47,26.47,0,0,0-15,8.73c-.13-.14-.26-.28-.39-.4a11.52,11.52,0,0,0-8.17-3.26,14.24,14.24,0,0,0-2.8.29,20,20,0,0,0-6.26,2.53l-.69-.76-4.35.88c-6.27,1.28-10.84,2.63-14,4.15l-2,1a42.84,42.84,0,0,0-5.29-.39,23.83,23.83,0,0,0-4.88.45l-4.32.88-.06.15a22.59,22.59,0,0,0-4,.46,20.79,20.79,0,0,0-12.33,8c-.08-.08-.15-.17-.23-.24a11.53,11.53,0,0,0-8.18-3.26,14.3,14.3,0,0,0-2.79.29,20.13,20.13,0,0,0-6.27,2.54l-.69-.77-4.34.89c-2.86.58-5.33,1.18-7.51,1.81a13,13,0,0,0,.37-3.08,11.85,11.85,0,0,0-4.31-9.47,11.52,11.52,0,0,0-7.3-2.47c-1,0-20.11,2.66-20.11,2.66l-13.9,2.4A62.72,62.72,0,0,0,601,418.12l-.7.29a6.35,6.35,0,0,0-3.84,4.7l-.24,1.26a6.77,6.77,0,0,0,1.68,5.6,3.21,3.21,0,0,1,.75,2.43c0,.06-1.68,11.46-3.6,20.79-3.07,14.92-3.43,19.83-3.43,22.23v1.71a6.35,6.35,0,0,0,7.63,6.22l2.37-.48c6.84-1.39,11.11-2.94,13.83-5l.55-.42a6.37,6.37,0,0,0,2.49-5.05v-1.89a88.38,88.38,0,0,1,1.59-13.83c.58-.14,1.19-.27,1.83-.4a32.76,32.76,0,0,1,4.1-.57,36.63,36.63,0,0,0-1.17,8,12.28,12.28,0,0,0,4,9.64,11.41,11.41,0,0,0,7.64,2.8,14.36,14.36,0,0,0,2.87-.3,19.43,19.43,0,0,0,4.69-1.67v.08l10.62-2.16c5.26-1.07,8.86-2.27,11.32-3.76l1.26-.76a11.62,11.62,0,0,0,5.3,1.23,15,15,0,0,0,3-.32,21.25,21.25,0,0,0,8-3.76c1.25-.89,2.26-1.66,3.1-2.35a13.92,13.92,0,0,0,7.3,2,16.3,16.3,0,0,0,3.22-.33,17.19,17.19,0,0,0,4.86-1.85,6.16,6.16,0,0,1,3.76-.59,14.56,14.56,0,0,0,1.49.08,15.76,15.76,0,0,0,3.06-.32,17.45,17.45,0,0,0,3.62-1.2,6.52,6.52,0,0,1,1.33-.45l8.74-1.77c5.26-1.07,8.86-2.27,11.32-3.76l1.26-.77a11.49,11.49,0,0,0,5.3,1.23,14.7,14.7,0,0,0,3-.31,21.25,21.25,0,0,0,8.05-3.77l.62-.45a6.31,6.31,0,0,1,5.69-.87,16,16,0,0,0,5,.75,21.77,21.77,0,0,0,4.29-.46,25.71,25.71,0,0,0,6.53-2.32,31.43,31.43,0,0,0,5-3.12c.95-.74,2-1.63,3-2.59a14.93,14.93,0,0,0,8.94,2.87,19.45,19.45,0,0,0,3.87-.41,29.76,29.76,0,0,0,12.14-5.55,48.23,48.23,0,0,0,3.76-3.29,21.86,21.86,0,0,0,3.43-4l.56-.88a6.35,6.35,0,0,0-.6-7.58l-1.41-1.61A24.78,24.78,0,0,0,815.53,418.72Z"/><path class="cls-3" d="M612.78,422.64l13.76-2.37,7.24-1.61a14.4,14.4,0,0,1,.21,2.78,5.29,5.29,0,0,1-.53,2.65,2.54,2.54,0,0,1-1.79,1.14c-.84.18-2.63.42-5.37.74s-4.76.62-6.08.89l-2.52.65q-.29,2.75-3.37,17.86c3.55-1.05,6.53-1.82,8.92-2.3a20.82,20.82,0,0,1,5.54-.57,13.71,13.71,0,0,1-1.26,5.35,35.83,35.83,0,0,0-7.16.82,54.28,54.28,0,0,0-7,1.85q-2.6,13.34-2.6,20v1.2q-2.52,1.94-10.67,3.59l-.7.14q0-4.8,3.26-20.67t4-22.65a6,6,0,0,0-.7-2.58,9.46,9.46,0,0,0-1.48-2.28l-.7-.84.21-1.11A54.75,54.75,0,0,1,612.78,422.64Z"/><path class="cls-3" d="M646.7,438.65q0,3-1.9,10.6c-1.26,5.09-1.9,8.37-1.9,9.86s.22,2.18.64,2.1a21.43,21.43,0,0,0,3.23-2l.84-.59,1.19,2.23c-.42.46-1,1.05-1.68,1.76a32.89,32.89,0,0,1-3.93,3.09,14.43,14.43,0,0,1-5.34,2.54,4.28,4.28,0,0,1-3.86-.73,4.83,4.83,0,0,1-1.41-3.82,48,48,0,0,1,1.76-9.55,49.85,49.85,0,0,0,1.75-8.94,8.08,8.08,0,0,0-1.82-5.22l-.63-.71.07-.94q3.72-1.81,12.07-3.51C646.39,435.39,646.7,436.67,646.7,438.65Zm-8-10.14a4.06,4.06,0,0,1-1.4-3.43,6.69,6.69,0,0,1,1.93-4.49,8.12,8.12,0,0,1,4.46-2.68,4.61,4.61,0,0,1,3.93.62A4.11,4.11,0,0,1,649,422a6.57,6.57,0,0,1-2,4.48,8.3,8.3,0,0,1-4.46,2.67A4.58,4.58,0,0,1,638.69,428.51Z"/><path class="cls-3" d="M653.16,464.48l-1.34.27q0-3.31,2-13.13t2-11.08a6.83,6.83,0,0,0-2-4.55l-.63-.72.07-.93q3.78-1.83,12.14-3.53c.61.67.94,2.07,1,4.18q6.11-6,10.32-6.84a4.27,4.27,0,0,1,4,1,5.47,5.47,0,0,1,1.51,4.11,49.14,49.14,0,0,1-1.62,9.48,51.18,51.18,0,0,0-1.61,9.06c0,1.48.18,2.19.56,2.11a16.12,16.12,0,0,0,3-1.94l.84-.6,1.26,2.22c-.42.46-1,1-1.68,1.76a32.55,32.55,0,0,1-3.9,3.09,13.81,13.81,0,0,1-5.09,2.48q-5.13,1-5.13-4.82a52.46,52.46,0,0,1,1.59-9.44,55.57,55.57,0,0,0,1.57-8.88c0-1.27-.39-1.82-1.19-1.66a12.61,12.61,0,0,0-5,2.78c-.15.83-.61,3-1.41,6.65Q662,457.1,662,461.69,659.56,463.18,653.16,464.48Z"/><path class="cls-3" d="M707.86,423.87a13.69,13.69,0,0,0,.77-2,26.15,26.15,0,0,1,8.85.18,112.26,112.26,0,0,0-2.81,12.83,69.48,69.48,0,0,0-1,9.34c0,1.81.18,2.68.56,2.61a19,19,0,0,0,3.09-2l.84-.59,1.26,2.21c-.42.47-1,1-1.65,1.75a30.22,30.22,0,0,1-3.82,3.08,13.8,13.8,0,0,1-5.06,2.48c-2.9.59-4.59-.39-5.05-2.93-3,3.25-5.7,5.11-8.11,5.61a6.56,6.56,0,0,1-6.12-1.59c-1.66-1.55-2.49-4.34-2.49-8.4q0-9.47,3.86-15.74t9.35-7.37A13.82,13.82,0,0,1,707.86,423.87Zm-8,25.74a9,9,0,0,0,3.79-2.12A94.91,94.91,0,0,1,707,427.1a8.52,8.52,0,0,0-3.59-.19c-1.68.34-3.12,2.3-4.32,5.86a35.66,35.66,0,0,0-1.79,11.36Q697.25,450.13,699.85,449.61Z"/><path class="cls-3" d="M722.53,450.37l-1.33.27q0-3.33,2-13.13t2-11.08a6.83,6.83,0,0,0-2-4.55l-.64-.72.07-.93c2.53-1.23,6.58-2.4,12.15-3.54.61.68.94,2.07,1,4.18q6.11-6,10.32-6.83a4.25,4.25,0,0,1,4,.95,5.47,5.47,0,0,1,1.51,4.11,49.26,49.26,0,0,1-1.62,9.48,49.93,49.93,0,0,0-1.61,9.06c0,1.48.18,2.19.56,2.11a16.77,16.77,0,0,0,3-1.94l.84-.6,1.26,2.22c-.42.46-1,1.05-1.68,1.75a33.41,33.41,0,0,1-3.9,3.1,14,14,0,0,1-5.09,2.48q-5.13,1-5.13-4.82a53.08,53.08,0,0,1,1.58-9.44,55,55,0,0,0,1.58-8.88c0-1.27-.39-1.83-1.19-1.66a12.7,12.7,0,0,0-5,2.78c-.14.83-.6,3-1.4,6.64q-2.46,11.61-2.46,16.2Q728.92,449.07,722.53,450.37Z"/><path class="cls-3" d="M772.46,412.22q-2.81.57-4.49,5.61a32.54,32.54,0,0,0-1.69,10.42q0,8.47,5.2,7.43a11,11,0,0,0,3.58-1.55,22.71,22.71,0,0,0,3-2.2l1-1.06,1.61,1.86a15.19,15.19,0,0,1-2.24,2.51c-1.13,1.07-2.18,2-3.16,2.76a23.77,23.77,0,0,1-3.79,2.33A18.09,18.09,0,0,1,767,442q-5.47,1.11-8.21-1.93c-1.83-2-2.74-5.08-2.74-9.13a23.68,23.68,0,0,1,4.6-14.58,19.11,19.11,0,0,1,11.83-7.64c3.13-.63,5.63-.42,7.48.64a5.13,5.13,0,0,1,2.77,4.74,9.5,9.5,0,0,1-2,5.8,12.18,12.18,0,0,1-4.07.05,7.56,7.56,0,0,1-3.51-1.19l1.05-6.43A2.84,2.84,0,0,0,772.46,412.22Z"/><path class="cls-3" d="M783.91,425.44a22.35,22.35,0,0,1,5.3-15q5.29-6.19,12-7.57a9.65,9.65,0,0,1,6.81.66,5.24,5.24,0,0,1,2.67,4.94,11.14,11.14,0,0,1-1.72,6.11,16.18,16.18,0,0,1-4.18,4.45,39.53,39.53,0,0,1-9.13,5l-1.68.56c.32,4.36,2.13,6.21,5.4,5.54a10.45,10.45,0,0,0,3.59-1.58,18.41,18.41,0,0,0,2.94-2.29l1.06-1.07,1.68,1.92a15.19,15.19,0,0,1-2.24,2.51,41.11,41.11,0,0,1-3.16,2.76,21.87,21.87,0,0,1-8.92,4.08q-4.85,1-7.66-1.91C784.84,432.56,783.91,429.54,783.91,425.44Zm15.73-8.57a10.87,10.87,0,0,0,2.1-6.65c0-2.54-.75-3.67-2.25-3.36q-2.67.54-4.1,5.39a31.33,31.33,0,0,0-1.44,8.82A12.47,12.47,0,0,0,799.64,416.87Z"/><path class="cls-9" d="M596.05,237.23a28.12,28.12,0,0,1,3.83-7.91l15.94-22.89c-1,.12-2,.27-3,.38C602.05,208,591,209.14,570.9,220.72c-1,1.53-.34,11.91,6.77,24.25.41.7.83,1.29,1.24,1.95,2.89,3.11,6.2,2.74,8.87,1.2l6-3.48Z"/><path class="cls-9" d="M624,244.68a59.28,59.28,0,0,1-20.26-3.22l-14.56,48.71c23.36-5.34,74.17-24.37,96.77-62.9C664.24,238.6,642.14,244.68,624,244.68Z"/><path class="cls-9" d="M678.12,251.71c4.54-1.74,9.11-3.7,13.63-5.92l-3.48-6A112.57,112.57,0,0,1,678.12,251.71Z"/><path class="cls-9" d="M594.83,200.91a110.06,110.06,0,0,1,17-2.83l1.93-.24a55.93,55.93,0,0,1-4.34-19.93C602.7,185.7,597.68,193.58,594.83,200.91Z"/><path class="cls-9" d="M692.1,234.13l5.13,8.87c1.77-.94,3.52-1.91,5.27-2.92,1.45-.84,2.83-1.72,4.24-2.59l-8.53-14.77A91.64,91.64,0,0,1,692.1,234.13Z"/><polygon class="cls-9" points="755.05 142.96 753.83 140.86 755.05 142.96 755.05 142.96"/><path class="cls-9" d="M640.61,143.13a44.3,44.3,0,0,1,60.51,16.21c1.68,2.92,1.63,6.27.35,9.83,3.39-4.15,8.25-11.48,5.26-16.67a47.43,47.43,0,0,0-88.23,28.86A44.22,44.22,0,0,1,640.61,143.13Z"/><path class="cls-9" d="M714.32,148.12c8.93,15.47-11.52,36.51-35.76,50.5-14.63,8.45-30.8,14.42-43.28,14.42a25.53,25.53,0,0,1-11.66-2.46l-16,22.95c18.91,6.41,51-.4,80.89-17.64,20.18-11.65,36.84-26.42,47-41.6,9.49-14.28,12-27,6.89-35.72-6.38-11-24.34-14.68-47.23-10.17A55.88,55.88,0,0,1,714.32,148.12Z"/><path class="cls-9" d="M610.93,163.65a56.23,56.23,0,0,1,3.48-10.4c-19,3.42-40.5,14.84-55.79,26.34l27.52,19.57C590.23,187.67,598.75,175.38,610.93,163.65Z"/><path class="cls-9" d="M702.34,217.6l9.58,16.58q4.68-3.12,9-6.43l-9.53-16.5C708.47,213.43,705.45,215.54,702.34,217.6Z"/><path class="cls-9" d="M742.79,179.15c-.57.85-1.22,1.7-1.83,2.55L750,197.41a65.11,65.11,0,0,0,6.06-11.51L747.5,171A82,82,0,0,1,742.79,179.15Z"/><path class="cls-9" d="M752.77,156.55a52.49,52.49,0,0,1-2.19,7.54l7.84,13.57c.92-5.58.37-10.68-2.07-14.91Z"/><path class="cls-9" d="M716.25,207.43l9.5,16.45c3-2.45,5.77-4.94,8.38-7.47l-9.41-16.31C722.05,202.6,719.2,205,716.25,207.43Z"/><path class="cls-9" d="M729.24,195.67l9.35,16.19a111.11,111.11,0,0,0,7.55-8.92L736.93,187C734.56,189.92,732,192.82,729.24,195.67Z"/><polygon class="cls-2" points="749.85 133.97 749.85 133.97 753.83 140.86 749.85 133.97"/><path class="cls-2" d="M755.05,143l-1.22-2.1-4-6.89h0c-9.66-16.39-35.55-20.72-67.74-11.41a55.77,55.77,0,0,0-62.25,21.13c-24.93,2.12-52.91,18-69.64,31.29a5.9,5.9,0,0,0-2.24,4.82,6.14,6.14,0,0,0,2.56,4.8l30,21.34a143.6,143.6,0,0,0-14,7.17c-9,5.18-3.31,24.31,3.57,36.24,5.19,9,11.1,15.45,16.68,18.53l-7.11,23.49a6.47,6.47,0,0,0,7.44,8.19c15.4-2.92,47.9-13.38,75-33.81l0,.09a168.64,168.64,0,0,0,44.75-18.17c45.68-26.38,70.74-65.61,57.05-89.31L755.05,143Zm-12.67-4.39c5.06,8.76,2.6,21.44-6.89,35.72-10.12,15.18-26.78,30-47,41.6-29.85,17.24-62,24.05-80.89,17.64l16-22.95A25.53,25.53,0,0,0,635.28,213c12.48,0,28.65-6,43.28-14.42,24.24-14,44.69-35,35.76-50.5a55.88,55.88,0,0,0-19.17-19.72C718,123.89,736,127.53,742.38,138.57Zm-100.47-3.43a47.46,47.46,0,0,1,64.82,17.36c3,5.19-1.87,12.52-5.26,16.67,1.28-3.56,1.33-6.91-.35-9.83a44.27,44.27,0,0,0-82.62,22A47.5,47.5,0,0,1,641.91,135.14Zm-83.29,44.45c15.29-11.5,36.8-22.92,55.79-26.34a56.23,56.23,0,0,0-3.48,10.4c-12.18,11.73-20.7,24-24.79,35.51Zm55.17,18.25-1.93.24a110.06,110.06,0,0,0-17,2.83c2.85-7.33,7.87-15.21,14.62-23A55.93,55.93,0,0,0,613.79,197.84Zm-34.88,49.08c-.41-.66-.83-1.25-1.24-1.95-7.11-12.34-7.82-22.72-6.77-24.25C591,209.14,602.05,208,612.79,206.81c1-.11,2-.26,3-.38l-15.94,22.89a28.12,28.12,0,0,0-3.83,7.91l-2.24,7.41-6,3.48C585.11,249.66,581.8,250,578.91,246.92Zm10.26,43.25,14.56-48.71A59.28,59.28,0,0,0,624,244.68c18.15,0,40.25-6.08,62-17.41C663.34,265.8,612.53,284.83,589.17,290.17Zm89-38.46a112.57,112.57,0,0,0,10.15-12l3.48,6C687.23,248,682.66,250,678.12,251.71Zm24.38-11.63c-1.75,1-3.5,2-5.27,2.92l-5.13-8.87a91.64,91.64,0,0,0,6.11-11.41l8.53,14.77C705.33,238.36,704,239.24,702.5,240.08Zm9.42-5.9-9.58-16.58c3.11-2.06,6.13-4.17,9-6.35l9.53,16.5Q716.6,231.05,711.92,234.18Zm13.83-10.3-9.5-16.45c3-2.39,5.8-4.83,8.47-7.33l9.41,16.31C731.52,218.94,728.7,221.43,725.75,223.88Zm12.84-12-9.35-16.19c2.78-2.85,5.32-5.75,7.69-8.67l9.21,15.94A111.11,111.11,0,0,1,738.59,211.86ZM750,197.41,741,181.7c.61-.85,1.26-1.7,1.83-2.55A82,82,0,0,0,747.5,171l8.59,14.86A65.11,65.11,0,0,1,750,197.41Zm8.39-19.75-7.84-13.57a52.49,52.49,0,0,0,2.19-7.54l3.58,6.2C758.79,167,759.34,172.08,758.42,177.66Z"/><path class="cls-4" d="M792.79,126.24A12.9,12.9,0,0,0,768.9,135l-13.85,8,4.39,7.6,13.85-8a12.91,12.91,0,0,0,19.5-16.33Z"/></svg>